<?xml version="1.0" encoding="utf-8"?>
<!-- Generator: Adobe Illustrator 25.0.1, SVG Export Plug-In . SVG Version: 6.00 Build 0)  -->
<svg version="1.1" id="Layer_1" xmlns="http://www.w3.org/2000/svg" xmlns:xlink="http://www.w3.org/1999/xlink" x="0px" y="0px"
	 viewBox="0 0 504.3 504.3" style="enable-background:new 0 0 504.3 504.3;" xml:space="preserve">
<style type="text/css">
	.st0{fill:#2C576D;stroke:#000000;stroke-width:8;stroke-linejoin:round;stroke-miterlimit:10;}
	.st1{fill:none;stroke:#000000;stroke-width:12;stroke-linejoin:round;stroke-miterlimit:10;}
	.st2{fill:#686C6D;}
	.st3{stroke:#000000;stroke-miterlimit:10;}
</style>
<path class="st0" d="M429.6,85.7c-5,1.4-43.1,12.6-58.1,49.7c-14.1,34.8-2.9,79.2,29.8,100.4c32.4,21.1,69.3,8.4,73.8,6.7
	c-31.5,41.9-86.5,56.1-130.3,35.7c-36.1-16.8-59.6-54.9-59-95.3c0.7-45.7,34.8-74.9,41.6-80.4c6.4-5.2,11.8-8.5,13.2-9.3
	C374.5,73.7,412.3,81,429.6,85.7z"/>
<path d="M317.4,115.1c0.6-0.1,0.6-0.1,1.2-0.2c8.7,1.3,15.3,7.6,16.8,16c2,10.6-5.7,21.4-16.8,23.4c-8.7,1.7-17.3-2-21.6-9.3
	c-1-1.6-0.5-2.9,1.2-3.7c1.7-0.8,3-0.6,3.8,1.1c3.3,5.1,9.3,8.1,15.7,6.9c8.1-1.6,13.4-8.8,11.9-16.7c-1.2-6.2-6.2-10.4-12.4-11.6
	c-1.9-0.2-2.7-1.8-2.4-3C315.1,116.1,316.2,115.4,317.4,115.1z"/>
<circle class="st1" cx="315.1" cy="205.8" r="14.3"/>
<path d="M345.3,245.1c-0.2-0.5-0.2-0.5-0.5-0.8c-1.7-6.9,1.1-14,7-17.8c7.5-4.9,18-2.5,23,5.1c3.9,6.1,3.8,13.6-0.4,19.2
	c-1,1.2-2,1.3-3.1,0.4c-1.2-1-1.3-2-0.4-3.2c2.9-4.2,3.3-9.7,0.4-14.1c-3.7-5.6-10.9-7.3-16.5-3.7c-4.3,2.9-6.1,8-5,13
	c0.4,1.6-0.5,2.6-1.6,2.7C346.9,246.6,345.9,246,345.3,245.1z"/>
<path d="M470.9,368.6c-2.1,0-3.6-1.4-3.6-3.6v-24.7h-24.7c-2.1,0-3.6-1.4-3.6-3.6s1.4-3.6,3.6-3.6h24.8v-24.7c0-2.1,1.4-3.6,3.6-3.6
	s3.6,1.4,3.6,3.6v24.8h24.8c2.1,0,3.6,1.4,3.6,3.6s-1.4,3.6-3.6,3.6h-24.9v24.8C474.5,367.2,473.1,368.6,470.9,368.6z"/>
<path d="M221.4,132.3c-2.1,0-3.6-1.4-3.6-3.6v-10.6h-10.6c-2.1,0-3.6-1.4-3.6-3.6s1.4-3.6,3.6-3.6h10.6v-10.5c0-2.1,1.4-3.6,3.6-3.6
	c2.1,0,3.6,1.4,3.6,3.6v10.6h10.6c2.1,0,3.6,1.4,3.6,3.6s-1.4,3.6-3.6,3.6h-10.6v10.6C224.9,130.9,223.5,132.3,221.4,132.3z"/>
<path d="M423.6,185.5c-2.1,0-3.6-1.4-3.6-3.6v-10.6h-10.6c-2.1,0-3.6-1.4-3.6-3.6c0-2.1,1.4-3.6,3.6-3.6H420v-10.6
	c0-2.1,1.4-3.6,3.6-3.6c2.1,0,3.6,1.4,3.6,3.6v10.6h10.6c2.1,0,3.6,1.4,3.6,3.6c0,2.1-1.4,3.6-3.6,3.6h-10.6v10.6
	C427.1,184.1,425.7,185.5,423.6,185.5z"/>
<path d="M286,306.6c-2.1,0-3.6-1.4-3.6-3.6v-10.6h-10.6c-2.1,0-3.6-1.4-3.6-3.6s1.4-3.6,3.6-3.6h10.6v-10.6c0-2.1,1.4-3.6,3.6-3.6
	s3.6,1.4,3.6,3.6v10.6h10.6c2.1,0,3.6,1.4,3.6,3.6s-1.4,3.6-3.6,3.6h-10.6V303C289.6,305.1,288.2,306.6,286,306.6z"/>
<path class="st2" d="M356.5,262c32.4,9.2,56.9,38.6,56.9,74.6c0,42.9-34.5,77.4-77.4,77.4H54.7c-27.4,0-49.1-21.8-49.1-49.1
	c0-23.3,16.1-42.2,37.2-47.8c-5.6-11.3-9.2-23.3-9.2-36.6c0-42.9,34.5-77.4,77.4-77.4c15.5,0,29.5,4.2,42.2,12.6
	c14.8-40.1,53.4-68.9,98.5-68.9c58.3,0,105.4,47.1,105.4,105.4C357.1,255.6,357.1,258.4,356.5,262"/>
<path class="st3" d="M336,417.4H54.7C25.9,417.4,2,393.5,2,364.7s23.9-52.7,52.7-52.7c2.1,0,3.6,1.4,3.6,3.6s-1.4,3.6-3.6,3.6
	C29.4,319.1,9,339.5,9,364.8c0,25.4,20.4,45.7,45.7,45.7H336c40.8,0,73.8-33,73.8-73.8c0-23.9-11.9-46.4-30.9-60.5
	c-1.4-1.4-2.1-3.6-0.7-4.9c1.4-1.4,3.6-2.1,4.9-0.7c21.1,15.5,34.5,40.1,34.5,66.1C417,380.8,380.4,417.4,336,417.4z M35,297.7
	c-1.4,0-2.7-1.4-3.6-2.7c-0.7-4.9-1.4-9.8-1.4-14.8c0-44.4,36.6-80.9,80.9-80.9c22.5,0,42.9,9.2,58.3,25.3c1.4,1.4,1.4,3.6,0,4.9
	s-3.6,1.4-4.9,0c-14-14.8-32.9-23.3-53.3-23.3c-40.8,0-73.8,33-73.8,73.8c0,4.2,0.7,9.2,1.4,13.4C38.6,295.7,37.2,297.1,35,297.7
	L35,297.7z M353.7,283.8h-0.7c-2.1-0.7-2.7-2.1-2.1-4.2c2.1-9.2,3.6-18.3,3.6-27.4c0-56.3-45.7-102-102-102
	c-33.8,0-65.5,16.9-84.5,45c-1.4,1.4-3.6,2.1-4.9,0.7c-1.4-1.4-2.1-3.6-0.7-4.9c20.4-30.3,54.2-48.5,90.8-48.5
	c59.8,0,109,49.1,109,109c0,9.8-1.4,19.7-4.2,28.9C356.5,283.1,355.1,283.8,353.7,283.8z M63.9,269.7h-0.7c-2.1-0.7-2.7-2.7-2.1-4.2
	c3.6-11.3,10.5-21.1,20.4-28.2c1.4-1.4,3.6-0.7,4.9,0.7c1.4,1.4,0.7,3.6-0.7,4.9c-8.3,5.6-14.8,14.8-17.5,24.7
	C66.7,269,65.3,269.7,63.9,269.7z M329.1,255.6c-2.1,0-3.6-1.4-3.6-3.6c0-14.1-4.2-28.2-11.9-40.1c-1.4-1.4-0.7-3.6,0.7-4.9
	c1.4-1.4,3.6-0.7,4.9,0.7c8.3,13.4,13.4,28.2,13.4,44.4C332.5,254.2,331.2,255.6,329.1,255.6z"/>
</svg>
